<svg xmlns="http://www.w3.org/2000/svg" version="1.1" xmlns:xlink="http://www.w3.org/1999/xlink" xmlns:svgjs="http://svgjs.com/svgjs" width="53" height="48"><svg width="53" height="48" viewBox="0 0 53 48" fill="none" xmlns="http://www.w3.org/2000/svg">
<path d="M51.2582 34.735C51.7349 34.735 52.1016 34.955 52.3582 35.395C52.6516 35.835 52.7982 36.44 52.7982 37.21C52.7982 38.64 52.4499 39.7767 51.7532 40.62C49.9932 42.7467 48.2149 44.3967 46.4182 45.57C44.6216 46.7067 42.4949 47.275 40.0382 47.275C37.6549 47.275 35.6199 46.6333 33.9332 45.35C32.2832 44.0667 30.7066 41.8667 29.2032 38.75C27.9932 36.2567 27.0399 34.4233 26.3432 33.25C25.6466 32.04 24.9499 31.1783 24.2532 30.665C23.5932 30.1517 22.7682 29.84 21.7782 29.73C21.6316 30.5 21.2099 32.92 20.5132 36.99C20.2199 38.8233 20.0366 39.9417 19.9632 40.345C19.5966 42.5817 18.8632 44.305 17.7632 45.515C16.6632 46.6883 14.9949 47.275 12.7582 47.275C10.3016 47.275 8.11989 46.56 6.21322 45.13C4.34322 43.6633 2.89489 41.6467 1.86822 39.08C0.841556 36.4767 0.328223 33.525 0.328223 30.225C0.328223 24.065 1.39156 18.7483 3.51822 14.275C5.68156 9.80167 8.68822 6.39167 12.5382 4.045C16.4249 1.66167 20.8982 0.469999 25.9582 0.469999C29.4782 0.469999 32.4299 1.00167 34.8132 2.065C37.1966 3.12833 38.9566 4.595 40.0932 6.465C41.2666 8.335 41.8532 10.4433 41.8532 12.79C41.8532 14.8433 41.3582 16.86 40.3682 18.84C39.4149 20.7833 37.9666 22.5067 36.0232 24.01C34.0799 25.5133 31.7149 26.6317 28.9282 27.365C30.6882 27.8417 32.0449 28.6117 32.9982 29.675C33.9516 30.7383 34.9049 32.2967 35.8582 34.35C36.8849 36.55 37.8932 38.1633 38.8832 39.19C39.9099 40.2167 41.0832 40.73 42.4032 40.73C43.5766 40.73 44.6949 40.345 45.7582 39.575C46.8216 38.7683 48.1599 37.4117 49.7732 35.505C50.2132 34.9917 50.7082 34.735 51.2582 34.735ZM14.1882 29.675C12.9416 29.675 12.0799 29.3817 11.6032 28.795C11.1632 28.2083 10.9432 27.5483 10.9432 26.815C10.9432 25.935 11.2182 25.2383 11.7682 24.725C12.3549 24.2117 13.0149 23.955 13.7482 23.955H15.1232C15.7099 20.3617 16.2599 17.2633 16.7732 14.66C17.2499 12.2767 18.7899 11.085 21.3932 11.085C23.4832 11.085 24.5282 12.02 24.5282 13.89C24.5282 14.2933 24.5099 14.605 24.4732 14.825L22.8232 23.955C24.8032 23.845 26.5999 23.3683 28.2132 22.525C29.8632 21.6817 31.1649 20.5083 32.1182 19.005C33.1082 17.5017 33.6032 15.7967 33.6032 13.89C33.6032 11.58 32.8149 9.765 31.2382 8.445C29.6616 7.125 27.3516 6.465 24.3082 6.465C20.7149 6.465 17.5616 7.36333 14.8482 9.16C12.1716 10.92 10.0816 13.56 8.57822 17.08C7.07489 20.5633 6.32322 24.8167 6.32322 29.84C6.32322 32.1867 6.56156 34.2033 7.03822 35.89C7.51489 37.5767 8.10156 38.8417 8.79822 39.685C9.49489 40.5283 10.1549 40.95 10.7782 40.95C11.2549 40.95 11.6399 40.7117 11.9332 40.235C12.2632 39.7583 12.5199 38.9883 12.7032 37.925L14.1882 29.675Z" fill="#FFAD33"></path>
</svg><style>@media (prefers-color-scheme: light) { :root { filter: none; } }
</style></svg>